<?xml version="1.0" encoding="UTF-8" standalone="no"?>
<!-- Created with Inkscape (http://www.inkscape.org/) -->

<svg
   width="175.72745mm"
   height="176.90486mm"
   viewBox="0 0 175.72745 176.90487"
   version="1.1"
   id="svg1"
   xml:space="preserve"
   xmlns:inkscape="http://www.inkscape.org/namespaces/inkscape"
   xmlns:sodipodi="http://sodipodi.sourceforge.net/DTD/sodipodi-0.dtd"
   xmlns:xlink="http://www.w3.org/1999/xlink"
   xmlns="http://www.w3.org/2000/svg"
   xmlns:svg="http://www.w3.org/2000/svg"><sodipodi:namedview
     id="namedview1"
     pagecolor="#ffffff"
     bordercolor="#000000"
     borderopacity="0.25"
     inkscape:showpageshadow="2"
     inkscape:pageopacity="0.0"
     inkscape:pagecheckerboard="0"
     inkscape:deskcolor="#d1d1d1"
     inkscape:document-units="mm"
     showguides="false"
     inkscape:zoom="0.89887065"
     inkscape:cx="351.55225"
     inkscape:cy="447.78412"
     inkscape:window-width="1632"
     inkscape:window-height="1186"
     inkscape:window-x="2049"
     inkscape:window-y="168"
     inkscape:window-maximized="0"
     inkscape:current-layer="layer1"><inkscape:page
       x="0"
       y="-2.2847993e-21"
       width="175.72745"
       height="176.90486"
       id="page2"
       margin="0"
       bleed="0" /></sodipodi:namedview><defs
     id="defs1"><path
       id="a"
       d="M 0,0 H 104 V 21 H 0 Z" /></defs><g
     inkscape:label="Capa 1"
     inkscape:groupmode="layer"
     id="layer1"
     transform="translate(44.74133,-73.882065)"><rect
       style="fill:#0a1012;fill-opacity:1;stroke:none;stroke-width:1;stroke-linecap:round;stroke-dasharray:1, 2, 1, 4.00002;stroke-dashoffset:0"
       id="rect3"
       width="175.72745"
       height="176.90485"
       x="-44.741329"
       y="73.882065"
       transform="translate(-1.1875e-6)" /><g
       style="fill:none"
       id="g3"
       transform="matrix(0.26458333,0,0,0.26458333,26.828088,155.94192)"><g
         id="g2"
         transform="matrix(5.417937,0,0,5.417937,-221.01882,-35.743185)"><mask
           id="b"
           fill="#ffffff"><use
             xlink:href="#a"
             id="use1" /></mask><g
           mask="url(#b)"
           id="g1"><path
             style="fill:#ffffff"
             d="M 23.46,0.377 C 21.84,0.347 14.81,0.327 10.71,0.327 H 0 v 3.85 c 8.62,0 18.85,-0.02 23.33,0.05 0.8,0.01 1.59,0.09 2.22,0.65 0.59,0.52 0.79,1.34 0.53,2.05 -0.42,1.15 -1.59,1.43 -2.75,1.45 -1.78,0.03 -6.65,0.04 -10.29,0.04 -8.93,0.01 -5.06,0 -13.04,0 v 3.84 c 8.62,0 18.87,-0.02 23.33,0.05 1.39,0.02 2.86,0.5 2.86,2.06 0,1.56 -1.47,2.06 -2.86,2.08 -4.45,0.07 -14.71,0.05 -23.33,0.05 v 3.85 c 8.65,0 19.97,0.03 23.46,-0.05 1.84,-0.04 4.57,-0.51 6.15,-2.91 1.49,-2.25 1.13,-5.18 -0.83,-7.05 1.96,-1.88 2.32,-4.81 0.83,-7.05 -1.59,-2.4 -4.31,-2.86 -6.15,-2.91 z M 92.18,0.435 C 89.9,0.385 86.45,0.355 83.41,0.345 75.99,0.315 80.45,0.325 73.38,0.325 v 3.86 c 7.53,0 12.8,-0.06 18.61,0.1 1.71,0.05 3.54,0.23 5.19,1.37 1.56,1.08 2.49,2.81 2.49,4.67 0,1.86 -0.9,3.59 -2.46,4.68 -1.65,1.14 -3.48,1.32 -5.19,1.37 -5.81,0.16 -11.09,0.1 -18.61,0.1 l -0.03,3.86 c 7.57,0 13.01,0.03 18.8,-0.11 2.32,-0.05 5.17,-0.32 7.81,-2.21 2.5,-1.79 4.01,-4.6 4.01,-7.7 0,-3.1 -1.51,-5.91 -4.01,-7.7 v 0.03 C 97.36,0.755 94.5,0.485 92.18,0.435 Z M 39.61,6.267 c -0.01,-1.86 0,-4.06 0,-5.94 h -4.45 c 0,1.9 -0.04,5.76 0.04,7.63 0.15,3.62 1.33,4.75 5.03,4.88 2.57,0.09 4.6,0.06 8.15,0.05 v -3.88 c -2.84,0 -4,0 -6.1,-0.03 -2.02,-0.04 -2.66,-0.7 -2.67,-2.71 z m 16.46,2.74 z m 0.01,3.88 z m -0.02,0 z m -0.01,-3.88 z m 0.02,0 c 2.08,0 4.62,-0.01 5.58,-0.03 2.02,-0.04 2.66,-0.68 2.67,-2.64 h 0.03 v -6.01 h 4.44 v 5.84 c -0.01,0.68 -0.02,1.3 -0.04,1.79 -0.15,3.65 -1.34,4.76 -5.27,4.88 -1.28,0.05 -4.68,0.05 -7.4,0.05 h -0.53 v 7.46 H 50.32 V 9.007 Z"
             id="path1" /></g></g></g></g></svg>
